{
  "accessors": [
    {
      "bufferView": 0,
      "componentType": 5125,
      "count": 1248,
      "type": "SCALAR"
    },
    {
      "bufferView": 1,
      "componentType": 5126,
      "count": 402,
      "max": [
        0.18028300334211894,
        0.0073999997659499606,
        0.19599999504862353
      ],
      "min": [
        -0.180283003342119,
        -0.0073999997659499606,
        -0.19599999504862353
      ],
      "type": "VEC3"
    },
    {
      "bufferView": 2,
      "componentType": 5126,
      "count": 402,
      "max": [
        0.7075803935001362,
        1.0,
        1.0
      ],
      "min": [
        -0.7076054702885094,
        -1.0,
        -1.0
      ],
      "type": "VEC3"
    },
    {
      "bufferView": 3,
      "componentType": 5126,
      "count": 402,
      "max": [
        0.8980383664852271,
        1.0
      ],
      "min": [
        0.0,
        0.0
      ],
      "type": "VEC2"
    }
  ],
  "asset": {
    "generator": "Adobe Illustrator",
    "version": "2.0"
  },
  "bufferViews": [
    {
      "buffer": 0,
      "byteLength": 4992,
      "target": 34963
    },
    {
      "buffer": 0,
      "byteLength": 4824,
      "byteOffset": 4992,
      "target": 34962
    },
    {
      "buffer": 0,
      "byteLength": 4824,
      "byteOffset": 9816,
      "target": 34962
    },
    {
      "buffer": 0,
      "byteLength": 3216,
      "byteOffset": 14640,
      "target": 34962
    }
  ],
  "buffers": [
    {
      "byteLength": 17856,
      "uri": "data:application/octet-stream;base64,"
    }
  ],
  "materials": [
    {
      "doubleSided": true,
      "pbrMetallicRoughness": {
        "baseColorFactor": [
          0.7421875,
          0.73828125,
          0.7265625,
          1.0
        ],
        "metallicFactor": 0.7317073345184326,
        "roughnessFactor": 0.49593493342399597
      }
    }
  ],
  "meshes": [
    {
      "primitives": [
        {
          "attributes": {
            "NORMAL": 2,
            "POSITION": 1,
            "TEXCOORD_0": 3
          },
          "indices": 0,
          "material": 0,
          "mode": 4
        }
      ]
    }
  ],
  "nodes": [
    {
      "mesh": 0
    }
  ],
  "scenes": [
    {
      "nodes": [
        0
      ]
    }
  ]
}
