{
  "accessors": [
    {
      "bufferView": 0,
      "componentType": 5125,
      "count": 7404,
      "type": "SCALAR"
    },
    {
      "bufferView": 1,
      "componentType": 5126,
      "count": 2076,
      "max": [
        0.1588474568507065,
        0.007164086770051092,
        0.1959999950486235
      ],
      "min": [
        -0.1588474568507065,
        -0.00716408677005087,
        -0.1959999950486235
      ],
      "type": "VEC3"
    },
    {
      "bufferView": 2,
      "componentType": 5126,
      "count": 2076,
      "max": [
        0.9999932948494435,
        0.9999999999995618,
        1.0
      ],
      "min": [
        -0.870483963212672,
        -1.0,
        -1.0
      ],
      "type": "VEC3"
    },
    {
      "bufferView": 3,
      "componentType": 5126,
      "count": 2076,
      "max": [
        1.0,
        0.5296673855018732
      ],
      "min": [
        0.0,
        0.0
      ],
      "type": "VEC2"
    }
  ],
  "asset": {
    "generator": "Adobe Illustrator",
    "version": "2.0"
  },
  "bufferViews": [
    {
      "buffer": 0,
      "byteLength": 29616,
      "target": 34963
    },
    {
      "buffer": 0,
      "byteLength": 24912,
      "byteOffset": 29616,
      "target": 34962
    },
    {
      "buffer": 0,
      "byteLength": 24912,
      "byteOffset": 54528,
      "target": 34962
    },
    {
      "buffer": 0,
      "byteLength": 16608,
      "byteOffset": 79440,
      "target": 34962
    }
  ],
  "buffers": [
    {
      "byteLength": 96048,
      "uri": "data:application/octet-stream;base64,"
    }
  ],
  "materials": [
    {
      "doubleSided": true,
      "pbrMetallicRoughness": {
        "baseColorFactor": [
          0.7421875,
          0.73828125,
          0.7265625,
          1.0
        ],
        "metallicFactor": 0.7317073345184326,
        "roughnessFactor": 0.49593493342399597
      }
    }
  ],
  "meshes": [
    {
      "primitives": [
        {
          "attributes": {
            "NORMAL": 2,
            "POSITION": 1,
            "TEXCOORD_0": 3
          },
          "indices": 0,
          "material": 0,
          "mode": 4
        }
      ]
    }
  ],
  "nodes": [
    {
      "mesh": 0
    }
  ],
  "scenes": [
    {
      "nodes": [
        0
      ]
    }
  ]
}
