{
  "accessors": [
    {
      "bufferView": 0,
      "componentType": 5125,
      "count": 13200,
      "type": "SCALAR"
    },
    {
      "bufferView": 1,
      "componentType": 5126,
      "count": 3682,
      "max": [
        0.18032089379824245,
        0.004858398279503157,
        0.10659999730705749
      ],
      "min": [
        -0.18032089379824257,
        -0.004858398279503157,
        -0.10659999730705749
      ],
      "type": "VEC3"
    },
    {
      "bufferView": 2,
      "componentType": 5126,
      "count": 3682,
      "max": [
        0.8287024259289011,
        0.9999999999596942,
        1.0
      ],
      "min": [
        -0.8359954632015767,
        -0.9999999998509012,
        -1.0
      ],
      "type": "VEC3"
    },
    {
      "bufferView": 3,
      "componentType": 5126,
      "count": 3682,
      "max": [
        0.949988515661437,
        1.0
      ],
      "min": [
        0.0,
        0.0
      ],
      "type": "VEC2"
    }
  ],
  "asset": {
    "generator": "Adobe Illustrator",
    "version": "2.0"
  },
  "bufferViews": [
    {
      "buffer": 0,
      "byteLength": 52800,
      "target": 34963
    },
    {
      "buffer": 0,
      "byteLength": 44184,
      "byteOffset": 52800,
      "target": 34962
    },
    {
      "buffer": 0,
      "byteLength": 44184,
      "byteOffset": 96984,
      "target": 34962
    },
    {
      "buffer": 0,
      "byteLength": 29456,
      "byteOffset": 141168,
      "target": 34962
    }
  ],
  "buffers": [
    {
      "byteLength": 170624,
      "uri": "data:application/octet-stream;base64,"
    }
  ],
  "materials": [
    {
      "doubleSided": true,
      "pbrMetallicRoughness": {
        "baseColorFactor": [
          0.796875,
          0.796875,
          0.796875,
          1.0
        ],
        "roughnessFactor": 0.4000000059604645
      }
    }
  ],
  "meshes": [
    {
      "primitives": [
        {
          "attributes": {
            "NORMAL": 2,
            "POSITION": 1,
            "TEXCOORD_0": 3
          },
          "indices": 0,
          "material": 0,
          "mode": 4
        }
      ]
    }
  ],
  "nodes": [
    {
      "mesh": 0
    }
  ],
  "scenes": [
    {
      "nodes": [
        0
      ]
    }
  ]
}
