{
  "accessors": [
    {
      "bufferView": 0,
      "componentType": 5125,
      "count": 2166,
      "type": "SCALAR"
    },
    {
      "bufferView": 1,
      "componentType": 5126,
      "count": 661,
      "max": [
        0.17453690973460168,
        0.005529882623699578,
        0.19599999504862353
      ],
      "min": [
        -0.1745369097346019,
        -0.005529882623699578,
        -0.19599999504862353
      ],
      "type": "VEC3"
    },
    {
      "bufferView": 2,
      "componentType": 5126,
      "count": 661,
      "max": [
        0.7231710372129477,
        1.0,
        1.0
      ],
      "min": [
        -1.0,
        -1.0,
        -1.0
      ],
      "type": "VEC3"
    },
    {
      "bufferView": 3,
      "componentType": 5126,
      "count": 661,
      "max": [
        0.8736508188725803,
        1.0
      ],
      "min": [
        0.0,
        0.0
      ],
      "type": "VEC2"
    }
  ],
  "asset": {
    "generator": "Adobe Illustrator",
    "version": "2.0"
  },
  "bufferViews": [
    {
      "buffer": 0,
      "byteLength": 8664,
      "target": 34963
    },
    {
      "buffer": 0,
      "byteLength": 7932,
      "byteOffset": 8664,
      "target": 34962
    },
    {
      "buffer": 0,
      "byteLength": 7932,
      "byteOffset": 16596,
      "target": 34962
    },
    {
      "buffer": 0,
      "byteLength": 5288,
      "byteOffset": 24528,
      "target": 34962
    }
  ],
  "buffers": [
    {
      "byteLength": 29816,
      "uri": "data:application/octet-stream;base64,"
    }
  ],
  "materials": [
    {
      "doubleSided": true,
      "pbrMetallicRoughness": {
        "baseColorFactor": [
          0.7421875,
          0.73828125,
          0.7265625,
          1.0
        ],
        "metallicFactor": 0.7317073345184326,
        "roughnessFactor": 0.49593493342399597
      }
    }
  ],
  "meshes": [
    {
      "primitives": [
        {
          "attributes": {
            "NORMAL": 2,
            "POSITION": 1,
            "TEXCOORD_0": 3
          },
          "indices": 0,
          "material": 0,
          "mode": 4
        }
      ]
    }
  ],
  "nodes": [
    {
      "mesh": 0
    }
  ],
  "scenes": [
    {
      "nodes": [
        0
      ]
    }
  ]
}
